Coordinates
version=1
nRows=13
nColumns=40
inDegrees=yes

Units are S.I. units (second, meters, Newtons, ...)
Angles are in degrees.

endheader
time	pelvis_tilt	pelvis_list	pelvis_rotation	pelvis_tx	pelvis_ty	pelvis_tz	hip_flexion_r	hip_adduction_r	hip_rotation_r	knee_angle_r	knee_angle_r_beta	ankle_angle_r	subtalar_angle_r	mtp_angle_r	hip_flexion_l	hip_adduction_l	hip_rotation_l	knee_angle_l	knee_angle_l_beta	ankle_angle_l	subtalar_angle_l	mtp_angle_l	lumbar_extension	lumbar_bending	lumbar_rotation	arm_flex_r	arm_add_r	arm_rot_r	elbow_flex_r	pro_sup_r	wrist_flex_r	wrist_dev_r	arm_flex_l	arm_add_l	arm_rot_l	elbow_flex_l	pro_sup_l	wrist_flex_l	wrist_dev_l
     17.42500000	     -6.21000348	     -6.54669684	      3.97430228	      1.03628748	      0.91449242	      0.49120591	     -0.50200005	      5.01801658	    -17.70018964	      9.28480239	      9.28480239	     17.18039048	      3.60591679	     -2.93079590	     35.40969941	     -8.73173619	     -1.74550894	     19.75639662	     19.75639662	      4.99525047	     -9.04778118	      9.86259766	    -10.77601317	      6.77855533	      2.98188160	     50.56484158	    -17.10106067	     -1.00875319	    100.74179107	     44.29289509	      0.00000000	      0.00000000	    -15.74226683	     -7.62058912	      1.26163631	     24.97768169	     46.48234966	      0.00000000	      0.00000000
     17.43621429	     -6.31239096	     -6.45242560	      3.91298898	      1.03776768	      0.91285862	      0.48894201	     -0.80097246	      4.69469328	    -17.49967777	      9.85398012	      9.85398012	     17.96207967	      3.43831938	     -2.40620465	     35.04019289	     -8.55202334	     -2.43554624	     19.92935135	     19.92935135	      3.86947753	     -9.73047663	      8.73516622	    -10.41801450	      6.69959938	      2.81848422	     51.09799491	    -16.77056646	     -0.89487572	    103.41242622	     44.23058141	      0.00000000	      0.00000000	    -16.70672984	     -7.54751222	      1.41643089	     25.37905132	     46.41522114	      0.00000000	      0.00000000
     17.44742857	     -6.28550426	     -6.34803908	      3.82098198	      1.03930844	      0.91151890	      0.48665268	     -1.13113495	      4.33621238	    -17.24570052	     10.65912495	     10.65912495	     19.04434089	      3.27168760	     -1.02838466	     34.48325191	     -8.37922577	     -2.90926618	     20.07250064	     20.07250064	      2.00672686	    -10.79608256	      5.82220097	    -10.27553112	      6.58753010	      3.12496773	     51.35125717	    -16.90511861	     -1.14370112	    106.44028700	     44.20770332	      0.00000000	      0.00000000	    -17.48447392	     -7.62612713	      1.96199317	     26.20728818	     46.26216430	      0.00000000	      0.00000000
     17.45864286	     -6.19333274	     -6.12950718	      3.72149817	      1.04079294	      0.91040606	      0.48425835	     -1.49985735	      3.83605016	    -16.96123540	     11.47971255	     11.47971255	     19.58594840	      2.92727073	     -1.15591909	     34.14081548	     -8.16342914	     -3.35146180	     20.90417211	     20.90417211	      1.58088907	    -11.34782771	      5.58075597	    -10.16747464	      6.33923919	      2.80305089	     51.99546738	    -16.27542414	     -1.00973105	    107.80912528	     44.17026142	      0.00000000	      0.00000000	    -18.02661944	     -7.42756477	      2.09309022	     25.96190390	     46.22731094	      0.00000000	      0.00000000
     17.46985714	     -6.25667854	     -5.93126557	      3.60183438	      1.04206767	      0.90929147	      0.48179318	     -1.38373271	      3.26253404	    -16.55547289	     12.88471642	     12.88471642	     20.18904737	      2.21431997	     -1.23222640	     33.95404367	     -7.93155376	     -3.55128860	     21.67979687	     21.67979687	      1.08788914	    -12.03486149	      4.97515350	     -9.93548098	      6.19358438	      2.40254320	     52.26942882	    -15.53702409	     -0.78915816	    110.12900708	     44.10495353	      0.00000000	      0.00000000	    -18.50475438	     -7.20296988	      2.25660562	     25.85243656	     46.18482943	      0.00000000	      0.00000000
     17.48107143	     -6.20333594	     -5.64698253	      3.46818174	      1.04331075	      0.90868614	      0.47923038	     -1.30765263	      2.58451203	    -16.08191660	     14.42083248	     14.42083248	     20.59130675	      1.33381849	     -1.25785708	     33.68269028	     -7.61593348	     -3.60161702	     22.57846413	     22.57846413	      0.75887831	    -12.84927030	      4.21066195	     -9.88183176	      5.88128481	      2.34294836	     52.19000639	    -15.25076058	     -0.76856846	    112.36138520	     44.05213803	      0.00000000	      0.00000000	    -18.70377965	     -7.04996782	      2.43207211	     25.81705381	     46.14400091	      0.00000000	      0.00000000
     17.49228571	     -6.05222036	     -5.37345797	      3.33492637	      1.04443327	      0.90850388	      0.47660026	     -1.14240388	      1.87533603	    -15.59539134	     16.28702924	     16.28702924	     20.83837077	      0.39732506	     -1.54262165	     33.36300889	     -7.31084715	     -3.54876955	     23.58997457	     23.58997457	      0.81786843	    -13.55754245	      3.64652747	     -9.97644161	      5.59554921	      2.20738642	     52.11584473	    -14.90172994	     -0.76178200	    114.27615932	     44.00577518	      0.00000000	      0.00000000	    -18.65517841	     -6.88096904	      2.60448445	     25.69124600	     46.11122068	      0.00000000	      0.00000000
     17.50350000	     -5.86413338	     -5.06055307	      3.20700620	      1.04552330	      0.90870895	      0.47383328	     -0.84948113	      1.08183255	    -15.11127756	     18.44190360	     18.44190360	     20.89791538	     -0.70132114	     -2.02918970	     32.97471200	     -6.94348649	     -3.46672477	     24.56082051	     24.56082051	      1.16793474	    -14.22847400	      3.24324643	    -10.09278089	      5.30755908	      2.09355765	     51.77264948	    -14.57808288	     -0.73084653	    116.02731047	     43.96065410	      0.00000000	      0.00000000	    -18.47593845	     -6.71493573	      2.76933604	     25.51248632	     46.08362212	      0.00000000	      0.00000000
     17.51471429	     -5.68210440	     -4.81437968	      3.06884581	      1.04648934	      0.90932579	      0.47107224	     -0.37874401	      0.39766771	    -14.36709479	     20.77515934	     20.77515934	     20.26819339	     -2.47902204	     -3.40187933	     32.51190801	     -6.58139123	     -3.17504534	     25.36102800	     25.36102800	      1.76292090	    -14.96236308	      3.27724730	    -10.26567277	      5.06771080	      2.68969525	     50.61070493	    -15.12500769	     -1.30527333	    119.04793216	     43.92501268	      0.00000000	      0.00000000	    -17.56714057	     -6.66650022	      3.32310314	     24.84453998	     45.99654207	      0.00000000	      0.00000000
     17.52592857	     -5.53613280	     -4.49196027	      2.92045506	      1.04727348	      0.91011325	      0.46815300	      0.46005504	     -0.53308167	    -13.99109225	     23.74597219	     23.74597219	     19.75092398	     -3.72890287	     -4.32405363	     32.04038373	     -6.18205996	     -3.18765358	     26.07869896	     26.07869896	      2.48078862	    -15.34176184	      3.09192324	    -10.35672368	      4.78734097	      2.35323990	     49.95838745	    -14.62643341	     -1.13040893	    120.21607768	     43.89165117	      0.00000000	      0.00000000	    -17.12431240	     -6.42453283	      3.54122114	     24.66545829	     45.96508101	      0.00000000	      0.00000000
     17.53714286	     -5.36976414	     -4.23331229	      2.74911739	      1.04801302	      0.91124538	      0.46533082	      1.31737364	     -1.30058259	    -13.34808947	     26.54033058	     26.54033058	     17.65273052	     -6.11271878	     -8.37762819	     31.49388698	     -5.80671882	     -3.07401368	     26.71620143	     26.71620143	      3.69998907	    -15.66319504	      4.13195769	    -10.50889832	      4.55171853	      2.91209288	     48.41478468	    -15.14387568	     -1.71456126	    122.69611887	     43.89522318	      0.00000000	      0.00000000	    -15.82734086	     -6.38620835	      4.47582586	     23.70852968	     45.81603990	      0.00000000	      0.00000000
     17.54835714	     -5.17580894	     -3.95850245	      2.55723774	      1.04868066	      0.91256812	      0.46248537	      2.49275195	     -2.22910747	    -13.01136420	     30.05527019	     30.05527019	     16.48655471	     -7.55709953	     -9.07251697	     30.75573772	     -5.45459648	     -3.19725000	     27.04229768	     27.04229768	      4.46832780	    -15.88907634	      3.86444490	    -10.64958301	      4.32200593	      2.52790203	     47.36691252	    -14.63413482	     -1.36754846	    123.37591951	     43.86472004	      0.00000000	      0.00000000	    -15.31053740	     -6.20518427	      4.59553589	     23.80925511	     45.80299879	      0.00000000	      0.00000000
     17.55957143	     -5.11717822	     -3.79202989	      2.36400427	      1.04915519	      0.91389095	      0.45977787	      3.87571006	     -2.89780752	    -12.36225257	     33.33075180	     33.33075180	     13.40216388	    -10.74022085	    -13.38408536	     30.09682548	     -5.17419413	     -3.23565713	     27.19962322	     27.19962322	      5.40538131	    -16.03239439	      4.28649229	    -10.68125913	      4.20922626	      2.90432628	     45.49140150	    -15.07981448	     -1.66496509	    125.44469178	     43.85881631	      0.00000000	      0.00000000	    -14.18347365	     -6.17362616	      5.18774306	     23.70165282	     45.71307853	      0.00000000	      0.00000000
